<svg xmlns="http://www.w3.org/2000/svg" viewBox="0 0 387.96 149.72"><defs><style>.cls-1{fill:#ccc;}.cls-2{fill:#a3a3a3;}.cls-3{fill:#fff;}</style></defs><title>Asset 51</title><g id="Layer_2" data-name="Layer 2"><g id="Layer_1-2" data-name="Layer 1"><rect class="cls-1" y="129.8" width="387.96" height="6.52" rx="3.06" ry="3.06"/><rect class="cls-1" x="107.96" y="143.19" width="115.82" height="6.52" rx="3.06" ry="3.06"/><rect class="cls-1" x="241.69" y="143.19" width="38.31" height="6.52" rx="3.06" ry="3.06"/><path class="cls-2" d="M138.34,61.7l-2.45-6.21A11.8,11.8,0,0,0,125,48.06H69.92a11.59,11.59,0,0,0-6.57,2,11.89,11.89,0,0,0-4.3,5.39L56.6,61.71l-7.46,19V84a9.61,9.61,0,0,0,7.46,9.38v23A13.4,13.4,0,0,0,70,129.8h54.94a13.39,13.39,0,0,0,13.4-13.4v-23A9.63,9.63,0,0,0,145.82,84V80.7Zm-17.79-6.1,5.33,22.57.6,3.38c0,3.93-5.74,7-9.68,7s-9.67-3.12-9.67-7V80.7L107,78.17,105.16,55.6ZM69.07,78.17,74.39,55.6H89.78L88,78.17l-.2,2.53v.85c0,3.93-5.74,7-9.67,7s-9.68-3.12-9.68-7Zm62.52,38.23a6.67,6.67,0,0,1-6.65,6.65H107.15V107.78a6.69,6.69,0,0,0-6.69-6.69h-6a6.68,6.68,0,0,0-6.69,6.69v15.27H70a6.67,6.67,0,0,1-6.65-6.65V92.52a9.61,9.61,0,0,0,4.36-4.75,12.18,12.18,0,0,0,20.86,0,9.67,9.67,0,0,0,17.8,0,12.18,12.18,0,0,0,20.86,0,9.65,9.65,0,0,0,4.36,4.75Z"/><path class="cls-1" d="M43.34,99.34l-1.1-2.79a5.31,5.31,0,0,0-4.87-3.32H12.73a5.17,5.17,0,0,0-2.93.92,5.32,5.32,0,0,0-1.93,2.4l-1.1,2.8-3.33,8.48v1.49a4.28,4.28,0,0,0,3.33,4.19V123.8a6,6,0,0,0,6,6H37.34a6,6,0,0,0,6-6V113.51a4.29,4.29,0,0,0,3.35-4.19v-1.49Zm-8-2.73,2.38,10.09.27,1.51c0,1.76-2.57,3.16-4.32,3.16s-4.33-1.4-4.33-3.16v-.38l-.09-1.13-.8-10.09Zm-23,10.09,2.38-10.09h6.89l-.8,10.09-.09,1.13v.38c0,1.76-2.56,3.16-4.32,3.16s-4.33-1.4-4.33-3.16Zm8.38,20.08V120a3,3,0,0,1,3-3h2.66a3,3,0,0,1,3,3v6.83Z"/><path class="cls-2" d="M270.43,98.86H177.61a15.47,15.47,0,0,0,0,30.94h92.82a15.47,15.47,0,0,0,0-30.94Zm0,26.09h-.86v-3.4a2.43,2.43,0,1,0-4.85,0V125h-9.53v-3.4a2.43,2.43,0,1,0-4.85,0V125h-9.52v-3.4a2.43,2.43,0,1,0-4.85,0V125h-9.53v-3.4a2.42,2.42,0,1,0-4.84,0V125h-9.53v-3.4a2.43,2.43,0,1,0-4.85,0V125H197.7v-3.4a2.43,2.43,0,1,0-4.85,0V125h-9.53v-3.4a2.43,2.43,0,1,0-4.85,0V125h-.86a10.62,10.62,0,0,1,0-21.24h.86v3.4a2.43,2.43,0,1,0,4.85,0v-3.4h9.53v3.4a2.43,2.43,0,1,0,4.85,0v-3.4h9.52v3.4a2.43,2.43,0,1,0,4.85,0v-3.4h9.53v3.4a2.42,2.42,0,1,0,4.84,0v-3.4H236v3.4a2.43,2.43,0,1,0,4.85,0v-3.4h9.52v3.4a2.43,2.43,0,1,0,4.85,0v-3.4h9.53v3.4a2.43,2.43,0,1,0,4.85,0v-3.4h.86a10.62,10.62,0,0,1,0,21.24Z"/><path class="cls-2" d="M182.66,93h82.72A10.13,10.13,0,0,0,275.51,82.9v-21L259.2,23.58a8.34,8.34,0,0,0-7.67-5.08H229.45A5.43,5.43,0,0,0,224,23.93V58.57a3.34,3.34,0,0,1-3.35,3.34h-38a10.13,10.13,0,0,0-10.13,10.14V82.9A10.13,10.13,0,0,0,182.66,93Zm56.72-64.31a3.52,3.52,0,0,1,3.52-3.52h6.81a4.51,4.51,0,0,1,4.19,2.85l11.56,29.17a3.09,3.09,0,0,1-2.88,4.23H242.9a3.51,3.51,0,0,1-3.52-3.52ZM229.1,54.64a2.6,2.6,0,0,1,5.2,0v4.21a2.6,2.6,0,0,1-5.2,0Z"/><path class="cls-2" d="M347.83,85.52,345.34,81,310,110.91a2.71,2.71,0,0,0,1.1,4.7l12.06,3a7.51,7.51,0,0,0,3.91-.07l15.53-4.49a9.81,9.81,0,0,0,7-8.34l.79-7A22.13,22.13,0,0,0,347.83,85.52Z"/><path class="cls-2" d="M313.27,29.22l11.25,48.5a7.72,7.72,0,0,0,15.13-3L329.8,16.18a14.08,14.08,0,0,1-3.68,3.87Zm22.88,48.32a4.53,4.53,0,1,1-2.46-5.91A4.52,4.52,0,0,1,336.15,77.54Zm-8.28-49.29,6.39,35.85a1.38,1.38,0,0,1-1.13,1.6,1,1,0,0,1-.24,0,1.38,1.38,0,0,1-1.36-1.14l-6.38-35.85a1.38,1.38,0,1,1,2.72-.48Z"/><path class="cls-2" d="M322.9,15.54A8.57,8.57,0,0,0,320,.26a9.23,9.23,0,0,0-1-.19A7.49,7.49,0,0,0,317.91,0l-.58,0a9.5,9.5,0,0,0-1.16.16c-.19,0-.38.08-.58.14a7.51,7.51,0,0,0-1.12.41,7.53,7.53,0,0,0-1.09.57L267.74,29.82l8.18,19.23ZM317.78,3.69a5,5,0,1,1-5,5A5,5,0,0,1,317.78,3.69ZM274.7,33a1.4,1.4,0,0,1-1.18-.65,1.38,1.38,0,0,1,.46-1.91L307.4,9.82a1.38,1.38,0,1,1,1.45,2.36L275.43,32.79A1.39,1.39,0,0,1,274.7,33Z"/><path class="cls-3" d="M213.45,79.47c0,1.14-1,1.85-2.58,1.85s-2.54-.71-2.54-2h1.3c0,.59.44.91,1.31.91s1.22-.27,1.22-.76c0-1.48-3.7-.32-3.7-2.9,0-1.11,1-1.86,2.47-1.86s2.44.73,2.44,2h-1.31c0-.61-.42-.89-1.15-.89s-1.15.27-1.15.75C209.76,78,213.45,76.8,213.45,79.47Z"/><path class="cls-3" d="M218.74,78.28v3h-1.29V78.61c0-.55-.28-.91-.81-.91a.9.9,0,0,0-.94,1v2.59h-1.3V74.55h1.28v2.76a1.61,1.61,0,0,1,1.44-.73A1.56,1.56,0,0,1,218.74,78.28Z"/><path class="cls-3" d="M224.36,78.92A2.28,2.28,0,0,1,222,81.31,2.24,2.24,0,0,1,219.6,79,2.28,2.28,0,0,1,222,76.58,2.24,2.24,0,0,1,224.36,78.92Zm-3.45,0c0,.77.42,1.29,1.07,1.29s1.07-.52,1.07-1.29-.41-1.3-1.07-1.3S220.91,78.17,220.91,79Z"/><path class="cls-3" d="M230,78.87c0,1.43-.8,2.44-2.06,2.44a1.53,1.53,0,0,1-1.39-.71v2.57h-1.29V76.62h1.25l0,.68a1.63,1.63,0,0,1,1.45-.72A2,2,0,0,1,230,78.87Zm-1.31,0c0-.76-.4-1.25-1-1.25a1.11,1.11,0,0,0-1.11,1.12v.29a1.11,1.11,0,0,0,1.1,1.14C228.27,80.22,228.7,79.71,228.7,78.92Z"/><path class="cls-3" d="M236.77,78a3,3,0,0,1-3.16,3.24h-2.52V74.77h2.52A3,3,0,0,1,236.77,78Zm-1.31,0c0-1.43-.78-2.17-1.85-2.17H232.4v4.33h1.21C234.69,80.18,235.46,79.44,235.46,78Z"/><path class="cls-3" d="M242.24,78.92a2.28,2.28,0,0,1-2.39,2.39A2.24,2.24,0,0,1,237.48,79a2.27,2.27,0,0,1,2.37-2.39A2.24,2.24,0,0,1,242.24,78.92Zm-3.45,0c0,.77.42,1.29,1.06,1.29s1.07-.52,1.07-1.29-.4-1.3-1.07-1.3S238.79,78.17,238.79,79Z"/><path class="cls-3" d="M247.65,78.92a2.27,2.27,0,0,1-2.38,2.39A2.23,2.23,0,0,1,242.9,79a2.27,2.27,0,0,1,2.37-2.39A2.23,2.23,0,0,1,247.65,78.92Zm-3.45,0c0,.77.43,1.29,1.07,1.29s1.07-.52,1.07-1.29-.41-1.3-1.07-1.3S244.2,78.17,244.2,79Z"/><path class="cls-3" d="M251.32,76.62v1.26a1,1,0,0,0-.32,0,1.09,1.09,0,0,0-1.13,1v2.39h-1.3V76.63h1.25l0,.75a1.23,1.23,0,0,1,1.19-.8A.81.81,0,0,1,251.32,76.62Z"/><path class="cls-3" d="M256.5,81.21a2,2,0,0,1-.66.1,1,1,0,0,1-1.05-.75h0a1.57,1.57,0,0,1-1.52.75c-1,0-1.57-.5-1.57-1.27,0-1.13,1.16-1.47,2.43-1.47h.6v-.2a.77.77,0,0,0-.88-.81c-.5,0-.81.25-.85.65h-1.18c.08-1,.89-1.63,2.09-1.63s2.07.71,2.07,1.88V80c0,.19.09.29.22.29a.57.57,0,0,0,.24,0Zm-1.78-1.63v-.3H254c-.69,0-1.09.2-1.09.61s.22.47.67.47C254.3,80.36,254.72,80,254.72,79.58Z"/><path class="cls-3" d="M256.49,75.28s-.08,0-.12-.09l-.15-.31a.3.3,0,0,0,.24-.31.32.32,0,0,0-.35-.33h-.41v1.12h.1v-.47h.3l.16.32c.06.1.11.16.22.16h.07v-.09Zm-.69-.47v-.48h.31a.23.23,0,0,1,.25.24.23.23,0,0,1-.25.24Z"/><path class="cls-3" d="M256.06,73.87a.94.94,0,1,0,.94.94A.95.95,0,0,0,256.06,73.87Zm0,1.82a.89.89,0,1,1,.89-.88A.89.89,0,0,1,256.06,75.69Z"/><path class="cls-3" d="M208.27,70.49c-.71-.09-2-.18-2.64-.23a.51.51,0,0,0-.49.28l-.83,1.67a.58.58,0,0,1-.51.31,38.75,38.75,0,0,0-13.18,2.08,1,1,0,0,0-.42,1.62,32.88,32.88,0,0,0,3.68,3.47,1.48,1.48,0,0,0,1.31.31c1.83-.42,3.93-.74,5.44-.94a.31.31,0,0,1,.36.31h0a.3.3,0,0,1-.2.3,21.16,21.16,0,0,0-4.88,2.54.52.52,0,0,0-.14.69h0a.5.5,0,0,0,.65.18A49.69,49.69,0,0,1,203.73,80a.62.62,0,0,0,.43-.55,9.62,9.62,0,0,0,0-1.19.51.51,0,0,0-.37-.47h0l-.07,0a22.86,22.86,0,0,0-3.15-.3h0c-.9,0-2-.07-3.21,0a1.26,1.26,0,0,1-1-.39l-.73-.77a.33.33,0,0,1,.1-.52,15.1,15.1,0,0,1,4.69-1.26,23,23,0,0,1,3.76,0A.78.78,0,0,0,205,74c.37-.78.82-1.84,1.05-2.39a.62.62,0,0,1,.56-.37c.5,0,1.15,0,1.56,0a.43.43,0,0,0,.41-.25.26.26,0,0,0,0-.11A.4.4,0,0,0,208.27,70.49Z"/><path class="cls-3" d="M197.62,83.66c-.4-.23-1,.08-1.35.69s-.32,1.29.07,1.51,1-.08,1.35-.69S198,83.89,197.62,83.66Z"/><ellipse class="cls-3" cx="203.66" cy="81.73" rx="1.27" ry="0.82" transform="translate(31.05 217.24) rotate(-60)"/></g></g></svg>