<svg xmlns="http://www.w3.org/2000/svg" viewBox="0 0 1132.87 264.87"><defs><style>.cls-1{fill:#fff;}</style></defs><title>Asset 2</title><g id="Layer_2" data-name="Layer 2"><g id="Layer_1-2" data-name="Layer 1"><path class="cls-1" d="M397,155.63c0,19.17-17.57,31.15-43.61,31.15-27.15,0-43-12-43-33.7h22c0,9.9,7.51,15.33,22,15.33,13.1,0,20.61-4.47,20.61-12.78,0-25.08-62.46-5.43-62.46-49,0-18.69,16.78-31.47,41.69-31.47,25.4,0,41.21,12.46,41.21,33.38h-22c-.16-10.38-7.19-15-19.49-15-13.25,0-19.32,4.47-19.32,12.62C334.7,130.08,397,110.43,397,155.63Z"/><path class="cls-1" d="M486.44,135.51v50.31H464.55V141.1c0-9.27-4.79-15.34-13.73-15.34-9.59,0-15.82,6.55-15.82,16.29v43.77H413V72.41h21.72v46.64c4.64-7.18,12.46-12.29,24.28-12.29C476.85,106.76,486.44,119.53,486.44,135.51Z"/><path class="cls-1" d="M581.31,146.37c0,23.48-16,40.25-40.25,40.25-24,0-40.09-16-40.09-39.45,0-23.64,16.13-40.41,40.09-40.41C565.34,106.76,581.31,122.89,581.31,146.37Zm-58.3.48c0,12.93,7.19,21.72,18,21.72,11.18,0,18.05-8.79,18.05-21.72,0-13.26-6.87-22-18.05-22C530.2,124.8,523,133.59,523,146.85Z"/><path class="cls-1" d="M676.83,145.41c0,24.28-13.58,41.21-34.82,41.21-11.5,0-19.17-4.79-23.48-12v43.44H596.65V107.39h21.24l.48,11.5c4.47-7,12.62-12.13,24.44-12.13C662.61,106.76,676.83,120.65,676.83,145.41Zm-22.2,1c0-12.94-6.71-21.25-17.41-21.25-12.14,0-18.69,10.23-18.69,19v5c0,9.43,6.87,19.17,18.53,19.17C647.44,168.25,654.63,159.62,654.63,146.37Z"/><path class="cls-1" d="M791,131c0,34.5-21.72,54.79-53.5,54.79H695V76.25h42.49C769.15,76.25,791,96.53,791,131Zm-22.2,0c0-24.11-13.1-36.57-31.3-36.57H717.08v73.15h20.45C755.89,167.61,768.83,155.15,768.83,131Z"/><path class="cls-1" d="M883.36,146.37c0,23.48-16,40.25-40.25,40.25-24,0-40.1-16-40.1-39.45,0-23.64,16.14-40.41,40.1-40.41C867.38,106.76,883.36,122.89,883.36,146.37Zm-58.3.48c0,12.93,7.18,21.72,18.05,21.72,11.18,0,18-8.79,18-21.72,0-13.26-6.86-22-18-22C832.24,124.8,825.06,133.59,825.06,146.85Z"/><path class="cls-1" d="M974.88,146.37c0,23.48-16,40.25-40.25,40.25-24,0-40.09-16-40.09-39.45,0-23.64,16.13-40.41,40.09-40.41C958.91,106.76,974.88,122.89,974.88,146.37Zm-58.3.48c0,12.93,7.19,21.72,18,21.72,11.18,0,18-8.79,18-21.72,0-13.26-6.87-22-18-22C923.77,124.8,916.58,133.59,916.58,146.85Z"/><path class="cls-1" d="M1036.85,107.39l-.16,21.41a13.13,13.13,0,0,0-5.43-.8c-9.9,0-17.89,6.23-19.17,17.41v40.41H990.21V107.55h21.09l.48,12.78c3.67-8,9.9-13.57,20.12-13.57A14.56,14.56,0,0,1,1036.85,107.39Z"/><path class="cls-1" d="M1124.38,185a36.78,36.78,0,0,1-11.18,1.6c-8.46,0-15-4-17.73-12.62h-.16c-2.55,4.79-9.1,12.62-25.71,12.62-17.25,0-26.52-8.47-26.52-21.41,0-19.16,19.65-24.75,41.05-24.75h10.07v-3.52c0-8.14-5-13.57-14.86-13.57-8.3,0-13.58,4.15-14.37,10.86h-19.81c1.28-17.73,15-27.47,35.3-27.47,22.84,0,35,12,35,31.78v25.24c0,3.19,1.44,4.79,3.67,4.79a9.86,9.86,0,0,0,4-.8Zm-30.18-27.63v-4.95h-11.35c-11.66,0-18.52,3.35-18.52,10.22,0,5.11,3.83,8,11.34,8C1087.17,170.65,1094.2,163.62,1094.2,157.39Z"/><path class="cls-1" d="M1124.13,84.72c-.63,0-1.32-.19-1.93-1.38L1119.55,78a5,5,0,0,0,4.09-5.22c0-3.75-2.68-5.49-5.91-5.49h-6.85V86.13h1.69V78.2h5l2.73,5.41c.91,1.77,1.77,2.65,3.62,2.65a5,5,0,0,0,1.3-.19l-.17-1.49A2.58,2.58,0,0,1,1124.13,84.72Zm-11.56-7.92v-8h5.16c2.43,0,4.2,1.38,4.2,4s-1.77,4-4.2,4Z"/><path class="cls-1" d="M1117,60.9a15.89,15.89,0,1,0,15.88,15.88A15.9,15.9,0,0,0,1117,60.9Zm0,30.83a15,15,0,1,1,15-15A15,15,0,0,1,1117,91.73Z"/><path class="cls-1" d="M309.51,3.89C297.47,2.36,275.26.74,264.84,0a8.54,8.54,0,0,0-8.24,4.71L242.5,32.92a9.55,9.55,0,0,1-8.59,5.28C126.13,37.49,47.25,60.37,11.25,73.37a17,17,0,0,0-7,27.23c20.92,23.93,47.73,47,62.07,58.78a25.78,25.78,0,0,0,22.22,5.16c30.92-7.17,66.4-12.54,92-15.91a5.38,5.38,0,0,1,6.09,5.2h0A5.37,5.37,0,0,1,183,159a358.25,358.25,0,0,0-82.34,42.88,8.76,8.76,0,0,0-2.47,11.57l.11.19a8.27,8.27,0,0,0,11,3c50.72-27.48,105-46.47,123.52-52.61A10.47,10.47,0,0,0,240,154.8a173.71,173.71,0,0,0,.25-20.1,8.9,8.9,0,0,0-6.37-8h0a8.26,8.26,0,0,0-1.22-.26c-4.31-.84-20.16-3.55-53.27-5.1h0c-15.21-.77-33.46-1.17-54.16-.63A21.4,21.4,0,0,1,109.11,114L96.78,101a5.57,5.57,0,0,1,1.7-8.89,257.12,257.12,0,0,1,79.21-21.22,385.08,385.08,0,0,1,63.57-.18,13.22,13.22,0,0,0,13.1-7.54c6.21-13.2,13.9-31.15,17.82-40.41a10.31,10.31,0,0,1,9.44-6.28c8.37-.05,19.46.35,26.28.65a7.16,7.16,0,0,0,6.91-4.2,5.52,5.52,0,0,0,.43-1.83A6.59,6.59,0,0,0,309.51,3.89Z"/><path class="cls-1" d="M129.49,226.38c-6.66-3.84-16.86,1.38-22.8,11.66s-5.35,21.73,1.3,25.57,16.85-1.38,22.79-11.66S136.14,230.22,129.49,226.38Z"/><ellipse class="cls-1" cx="231.64" cy="193.74" rx="21.5" ry="13.91" transform="translate(-51.96 297.48) rotate(-60)"/></g></g></svg>